<?xml version="1.0" encoding="UTF-8"?> <svg xmlns="http://www.w3.org/2000/svg" id="Layer_1" data-name="Layer 1" viewBox="0 0 630 360"><defs><style>.cls-1,.cls-2{fill:#323232;}.cls-2,.cls-3{fill-rule:evenodd;}.cls-3{fill:red;}</style></defs><title>43_white</title><g id="Page-1"><g id="astropay-logo-white"><path id="Shape" class="cls-1" d="M102.2,120.31,69.79,215.24H88.87L98,187.53h26.3l9.43,27.71H153.2l-32.46-94.93Zm17.56,51.48H102.69l7.1-20.9c.49-1.43.94-2.82,1.35-4.26.44,1.44.89,2.92,1.43,4.4Z"></path><path id="Path" class="cls-2" d="M186.25,171.7c-8.75-3.52-9.74-5.1-9.74-7.67,0-3.2,2.69-5.23,7-5.23a21.07,21.07,0,0,1,11.09,3.29l3.73,2.35,4.94-15.16-2.2-1.44c-4.31-2.85-10.78-4.51-17.33-4.51-14.64,0-25.28,9.29-25.28,22.14,0,11.78,10.42,18.09,19.13,21.25s9.38,5.5,9.38,8.3c0,5.23-5.48,6-8.71,6a29.48,29.48,0,0,1-13.56-4L161,194.84l-4.89,15.47,2.38,1.4a39.35,39.35,0,0,0,19.53,5c16.17,0,27-9.11,27-22.64C205.07,180.32,194.29,174.72,186.25,171.7Z"></path><path id="Path-2" data-name="Path" class="cls-2" d="M234.43,127.51l-18.2,5.55v11h-9.81v15.87h9.81v31.48c0,8.79,1.76,15.06,5.36,19.2,3.52,3.92,8.87,6,15,6A35.44,35.44,0,0,0,248,214.9l2.48-.86-1-15.93-4.18,1.28a19.14,19.14,0,0,1-5.68.63c-2.21,0-5.18,0-5.18-9V159.94H251V144.07H234.47V127.51Z"></path><path id="Path-3" data-name="Path" class="cls-2" d="M297,144l-3.44-.4a23.17,23.17,0,0,0-3.39-.27,22,22,0,0,0-15.58,6.5l-.19-5.2H256.75l.24,3.71c.37,5.41.55,11.64.55,19.63v47.27h19.07V177.86a36,36,0,0,1,.32-4.79c1.4-7.31,6.14-11.87,12.47-11.87a16.66,16.66,0,0,1,3.3.18l4.32.91Z"></path><path id="Shape-2" data-name="Shape" class="cls-1" d="M329.87,143.33c-21,0-35.72,15.25-35.72,37.14,0,21.31,14.22,36.2,34.61,36.2,17.26,0,35.86-11.64,35.86-37.28C364.66,158.18,350.35,143.33,329.87,143.33Zm15.65,36.47c0,12.32-6.82,21.26-16.16,21.26s-16.07-8.85-16.07-21c0-7.86,3.46-21.13,16.35-21.13C342.2,158.94,345.52,172.57,345.52,179.8Z"></path><path id="Shape-3" data-name="Shape" class="cls-1" d="M424.71,127.15c-6.13-5.47-15.31-8.27-27.34-8.27a137.18,137.18,0,0,0-22.66,1.76l-2.9.5v94.1h18.48v-35c1.91.18,3.86.23,5.77.23,12.48,0,23.06-3.84,29.74-10.8,5.22-5.34,7.85-12.52,7.85-21.38C433.65,139.76,430.47,132.25,424.71,127.15Zm-9.54,21.78c0,13.38-11.8,15.37-18.89,15.37a45.64,45.64,0,0,1-6-.32v-28.7a62.61,62.61,0,0,1,7.36-.36C405.64,134.92,415.17,137.36,415.17,148.93Z"></path><path id="Shape-4" data-name="Shape" class="cls-1" d="M489.58,196.53v-23.8c0-19-10-29.4-28.07-29.4-8.37,0-17.07,2.25-23.21,6L436,150.82l5,14.68,3.85-2.57a28.16,28.16,0,0,1,15-4.16c3.75,0,6.54.82,8.33,2.58a10.09,10.09,0,0,1,2.7,6.46c-14.65.4-25.36,3.88-31.87,10.25a22.66,22.66,0,0,0-6.82,16.84c0,10.8,8,21.77,23.26,21.77A28.65,28.65,0,0,0,472.91,211l.51,4.2h17.76l-.6-4A81.9,81.9,0,0,1,489.58,196.53Zm-31.27,4.7c-2.79,0-7.42-1-7.42-7.59a8,8,0,0,1,2.43-6.1c2.2-2.12,7.05-4.56,17.9-4.78v7.58a8.87,8.87,0,0,1-.37,2.58C469.53,196.76,465.45,201.23,458.31,201.23Z"></path><path id="Path-4" data-name="Path" class="cls-2" d="M540.38,144.76l-13.51,39.37c-.37,1-.69,2-1,3-.36-1-.68-1.93-1-2.82l-14.74-39.55H489.74l25.48,62.88.09.18a6.82,6.82,0,0,1,.59,1.47c-.14.36-.41,1-.59,1.39a33.54,33.54,0,0,1-8.78,11.56l-.09.09a27.66,27.66,0,0,1-9,5l-3.28,1L498.93,244l3.05-.54c1.87-.31,8.46-1.88,16-8.1,9.06-7.88,15.06-20.47,22.93-40.89l19.29-49.66H540.38Z"></path><path id="Path-5" data-name="Path" class="cls-3" d="M138.77,145c11.92-11.88,32.11-19,54.06-19a95.2,95.2,0,0,1,24.75,3.18l.63.18,14.09-4.15L226,122.89A115.3,115.3,0,0,0,185.92,116c-20.59,0-39.83,4.86-54.19,13.7l-1.54,1,5.92,17Z"></path></g></g></svg> 