<?xml version="1.0" encoding="UTF-8"?> <svg xmlns="http://www.w3.org/2000/svg" id="Layer_1" data-name="Layer 1" viewBox="0 0 630 360"><defs><style>.cls-1{fill:#459bbe;}.cls-2{fill:#235971;}</style></defs><title>510_white</title><path class="cls-1" d="M267.45,185.31l10.63-67.88h-11.6c-5.31,0-12.32-2.9-14.49-8.46-.73-1.93-2.18-8.45,6.76-14.73,3.14-2.18,5.32-4.59,5.56-6.53a5,5,0,0,0-1.45-5.07c-1.69-1.69-5.56-2.9-10.39-2.9-8.21,0-14,4.83-14.49,8.22-.49,2.65,1.69,4.59,3.38,5.79,5.07,3.87,6.28,9.43,3.14,14.74-3.38,5.32-10.39,8.94-17.88,8.94H214.78c-1,6.52-16.91,108-18.12,116h63.78c.24-3.38,3.14-22.71,7-48.08Z"></path><path class="cls-2" d="M352.73,58H288l-8.69,54.84H290.4c6,0,11.84-2.66,14.25-6.76a7.16,7.16,0,0,0,1.21-3.39,6.12,6.12,0,0,0-3.14-5.07c-4.35-3.14-5.07-6.52-5.07-8.94V87.47c1-5.79,8.69-12.08,19.08-12.08,6.28,0,10.87,1.45,13.77,4.11a10,10,0,0,1,2.9,9.18c-1,4.11-5.07,7.49-7.49,9.18-6.28,4.35-5.55,8.22-5.07,9.42,1.21,3.39,6.28,5.56,10.15,5.56H347.9c23,.24,35.27,10.63,31.16,35.27-3.62,22.71-21,32.61-41.79,32.86l-8.7,52.42h12.08c51.46,0,93.25-33.1,101.71-85C452.74,83.85,411.67,58,352.73,58Z"></path><path class="cls-2" d="M193,256.82h26.09c11.11,0,13.77,5.56,13.05,10.88-.73,4.1-3.38,7.24-8.46,9.18,6.28,2.41,8.7,6,7.73,11.83-1.21,7.25-7.49,12.57-15.7,12.57H186Zm17.15,18.61c5.08,0,7.49-2.66,8-5.8.48-3.38-1-5.8-6-5.8h-4.59l-1.94,11.6Zm-2.9,19.32c5.32,0,8.22-2.17,8.94-6.52.49-3.62-1.45-6-6.52-6h-5.07l-1.94,12.56Z"></path><path class="cls-2" d="M267.69,301.76c-6.76.48-10.15-.24-11.6-3.14A22.49,22.49,0,0,1,244.26,302c-7.73,0-10.39-3.87-9.67-8.46a8.52,8.52,0,0,1,3.63-5.79c4.1-3.63,14.73-4.11,18.84-7,.24-3.14-1-4.35-4.83-4.35-4.59,0-8.21,1.45-14.74,5.8L238.94,272a27.3,27.3,0,0,1,17.15-5.79c8,0,15,3.14,13.53,11.83L268.17,288c-.48,3.38-.48,4.59,3.39,4.59Zm-11.6-15.22c-3.62,2.17-10.38,1.93-11.11,6.52-.24,2.18,1,3.87,3.14,3.87a12.18,12.18,0,0,0,6.77-2.42c-.25-.72,0-1.69.24-3.14Z"></path><path class="cls-2" d="M280.49,267H294l-.72,4.59c4.35-3.62,7.49-5.07,11.84-5.07,7.49,0,11.11,4.59,9.9,12.32l-3.62,22.71H297.89l2.9-18.85c.48-3.38-.49-5.07-3.14-5.07-2.18,0-4.11,1.21-6,3.62l-3.14,20.06H274.94Z"></path><path class="cls-2" d="M325.67,256.82H339.2l-3.38,22,13-11.84h16.67l-16.67,14.74,13.29,19.81H345l-10.39-15.95h-.24L332,301.52H318.42Z"></path><path class="cls-2" d="M193,256.82h26.09c11.11,0,13.77,5.56,13.05,10.88-.73,4.1-3.38,7.24-8.46,9.18,6.28,2.41,8.7,6,7.73,11.83-1.21,7.25-7.49,12.57-15.7,12.57H186Zm17.15,18.61c5.08,0,7.49-2.66,8-5.8.48-3.38-1-5.8-6-5.8h-4.59l-1.94,11.6Zm-2.9,19.32c5.32,0,8.22-2.17,8.94-6.52.49-3.62-1.45-6-6.52-6h-5.07l-1.94,12.56Z"></path><path class="cls-2" d="M267.69,301.76c-6.76.48-10.15-.24-11.6-3.14A22.49,22.49,0,0,1,244.26,302c-7.73,0-10.39-3.87-9.67-8.46a8.52,8.52,0,0,1,3.63-5.79c4.1-3.63,14.73-4.11,18.84-7,.24-3.14-1-4.35-4.83-4.35-4.59,0-8.21,1.45-14.74,5.8L238.94,272a27.3,27.3,0,0,1,17.15-5.79c8,0,15,3.14,13.53,11.83L268.17,288c-.48,3.38-.48,4.59,3.39,4.59Zm-11.6-15.22c-3.62,2.17-10.38,1.93-11.11,6.52-.24,2.18,1,3.87,3.14,3.87a12.18,12.18,0,0,0,6.77-2.42c-.25-.72,0-1.69.24-3.14Z"></path><path class="cls-2" d="M280.49,267H294l-.72,4.59c4.35-3.62,7.49-5.07,11.84-5.07,7.49,0,11.11,4.59,9.9,12.32l-3.62,22.71H297.89l2.9-18.85c.48-3.38-.49-5.07-3.14-5.07-2.18,0-4.11,1.21-6,3.62l-3.14,20.06H274.94Z"></path><path class="cls-2" d="M325.67,256.82H339.2l-3.38,22,13-11.84h16.67l-16.67,14.74,13.29,19.81H345l-10.39-15.95h-.24L332,301.52H318.42Z"></path><path class="cls-1" d="M373.5,256.82h15.71l-7,44.46H366.5Z"></path><path class="cls-1" d="M396.7,256.82h22.22c17.15,0,22.23,12.57,20.54,22.95-1.45,10.15-9.67,21.75-24.64,21.75H389.93Zm14.49,34.07c7.49,0,11.84-3.63,13.05-11.6,1-5.8-1-11.59-9.18-11.59h-4.35l-3.63,23.43,4.11-.24Z"></path></svg> 