<?xml version="1.0" encoding="UTF-8"?> <svg xmlns="http://www.w3.org/2000/svg" id="Layer_1" data-name="Layer 1" viewBox="0 0 630 360"><defs><style>.cls-1{fill:#f0b90b;}</style></defs><title>993_white</title><g id="custom-citadele-logo"><path class="cls-1" d="M87.68,180,76.4,191.29,65,180l11.39-11.39Zm27.59-27.59,19.44,19.44,11.4-11.39-30.84-30.73L84.44,160.56,95.84,172Zm38.89,16.2L142.87,180l11.39,11.39L165.65,180Zm-38.89,39L95.84,188.05l-11.4,11.39,30.83,30.83,30.84-30.83-11.4-11.39Zm0-16.29,11.4-11.4-11.4-11.29L103.88,180l11.39,11.29Zm119.8,1.17v-.19c0-7.37-3.93-11.1-10.31-13.56,3.93-2.16,7.27-5.7,7.27-11.88v-.19c0-8.65-7-14.24-18.17-14.24H188.23V207.5h26.22c12.47.09,20.62-5,20.62-15ZM220,168.91c0,4.12-3.34,5.79-8.74,5.79H200V163h12c5.1,0,7.95,2.06,7.95,5.7Zm3,22c0,4.12-3.24,6-8.54,6H200V184.81h14c6.18,0,8.93,2.26,8.93,6v.1Zm37.51,16.69V152.41H248.33V207.5H260.5v.09Zm65.2,0V152.41h-12v34l-25.82-34H276.7V207.5h12v-35l26.7,35.05Zm67.16,0L369.2,152.11H358l-23.66,55.48h12.47l5-12.37H375.1l5,12.37h12.75Zm-22.09-23.07H356.14l7.37-17.87Zm79.93,23.07V152.41h-12v34l-25.82-34H401.7V207.5h12v-35l26.7,35.05Zm62.55-8.93-7.75-7.76c-4.33,3.93-8.16,6.48-14.54,6.48-9.42,0-16-7.86-16-17.28v-.3c0-9.42,6.67-17.18,16-17.18,5.5,0,9.82,2.36,14.14,6.19l7.76-8.94c-5.11-5-11.29-8.54-21.7-8.54-16.89,0-28.77,12.86-28.77,28.47v.2c0,15.81,12.07,28.38,28.28,28.38,10.6.1,16.89-3.64,22.58-9.72ZM565,207.59v-10.8h-30V185.2h26V174.4h-26V163.21h29.56v-10.8H523.07V207.5H565v.09Z"></path></g></svg> 