<?xml version="1.0" encoding="UTF-8"?> <svg xmlns="http://www.w3.org/2000/svg" id="Layer_1" data-name="Layer 1" viewBox="0 0 630 360"><defs><style>.cls-1{fill:#f7931a;}.cls-2{fill:#fff;}.cls-3{fill:#4d4d4d;}</style></defs><title>90_white</title><path class="cls-1" d="M168.4,192.58a52,52,0,1,1-37.86-63A52,52,0,0,1,168.4,192.58Z"></path><path class="cls-2" d="M140.88,172.59c1-6.92-4.23-10.64-11.43-13.12l2.33-9.37-5.7-1.42-2.28,9.12c-1.5-.37-3-.72-4.57-1.07l2.29-9.19-5.7-1.42-2.34,9.37c-1.24-.28-2.46-.56-3.64-.86v0l-7.87-2-1.52,6.09s4.23,1,4.14,1c2.32.58,2.73,2.11,2.66,3.32l-2.66,10.68a4.36,4.36,0,0,1,.59.19l-.6-.15-3.73,15a2.07,2.07,0,0,1-2.61,1.35c0,.09-4.15-1-4.15-1l-2.83,6.53,7.42,1.85,4.07,1L100.4,208l5.7,1.42,2.33-9.38c1.56.42,3.07.81,4.55,1.18l-2.33,9.34,5.71,1.42,2.36-9.46c9.73,1.84,17,1.09,20.12-7.7,2.48-7.09-.12-11.18-5.24-13.84,3.73-.86,6.54-3.31,7.28-8.38Zm-13,18.28c-1.76,7.09-13.69,3.26-17.56,2.3l3.13-12.56C117.29,181.57,129.69,183.48,127.85,190.87Zm1.76-18.38c-1.61,6.44-11.53,3.17-14.75,2.37l2.84-11.39C120.92,164.27,131.29,165.77,129.61,172.49Z"></path><path class="cls-3" d="M218.35,159.47a24.71,24.71,0,0,1,10.92,2.24,22,22,0,0,1,7.65,6,25.61,25.61,0,0,1,4.47,9,40.85,40.85,0,0,1,1.44,11.06A45,45,0,0,1,230.33,219a43.13,43.13,0,0,1-13.69,9.47,41.87,41.87,0,0,1-17.1,3.49c-.79,0-2.18,0-4.15-.07a61.08,61.08,0,0,1-6.77-.58,82.3,82.3,0,0,1-8.1-1.59,40.57,40.57,0,0,1-8.1-2.89l22.77-95.68,20.4-3.16L207.43,162a33.28,33.28,0,0,1,5.26-1.84,23.74,23.74,0,0,1,5.66-.66Zm-17.11,56.34a17.94,17.94,0,0,0,8.69-2.24,23,23,0,0,0,7-6,30.27,30.27,0,0,0,4.67-8.49,29.12,29.12,0,0,0,1.71-9.88c0-4.21-.71-7.49-2.11-9.87s-4-3.55-7.76-3.55a24.28,24.28,0,0,0-4.8.65,12,12,0,0,0-5.34,2.78l-8.68,36.05,1.38.26a9.44,9.44,0,0,0,1.24.2,14.37,14.37,0,0,0,1.59.08Z"></path><path class="cls-3" d="M264,230.15H244.5L261,160.93h19.62Zm9.48-77.66a12,12,0,0,1-7.37-2.43q-3.3-2.42-3.3-7.43a12.43,12.43,0,0,1,1.12-5.2,13.77,13.77,0,0,1,3-4.21,14.52,14.52,0,0,1,4.27-2.83,13,13,0,0,1,5.21-1,12.11,12.11,0,0,1,7.36,2.43q3.28,2.44,3.29,7.44a12.24,12.24,0,0,1-1.12,5.2,13.62,13.62,0,0,1-3,4.21,14.32,14.32,0,0,1-4.27,2.83,12.85,12.85,0,0,1-5.2,1Z"></path><path class="cls-3" d="M297.63,143.69,318,140.52l-5,20.41h21.84l-3.94,16H309.21l-5.78,24.21a26.71,26.71,0,0,0-.92,5.66,10.2,10.2,0,0,0,.65,4.54,5.64,5.64,0,0,0,2.83,3,12.87,12.87,0,0,0,5.85,1.07,30.93,30.93,0,0,0,6.13-.6,43.43,43.43,0,0,0,6-1.64l1.45,15a70.94,70.94,0,0,1-8.55,2.49,49.22,49.22,0,0,1-10.93,1.05q-9.07,0-14.08-2.69a15.6,15.6,0,0,1-7.11-7.38,23.38,23.38,0,0,1-1.84-10.72,69.35,69.35,0,0,1,1.84-12.76Z"></path><path class="cls-3" d="M334,202.51a48.53,48.53,0,0,1,2.89-16.84,41.3,41.3,0,0,1,8.3-13.83,38.68,38.68,0,0,1,13.1-9.34,41.76,41.76,0,0,1,17.16-3.42,45.22,45.22,0,0,1,10.59,1.12,42.85,42.85,0,0,1,8.5,3l-6.72,15.27c-1.75-.71-3.57-1.34-5.46-1.91a23.71,23.71,0,0,0-6.91-.86c-6.5,0-11.64,2.25-15.46,6.71s-5.73,10.49-5.73,18q0,6.71,2.9,10.86t10.66,4.14a34.18,34.18,0,0,0,7.37-.79,36.24,36.24,0,0,0,6.32-2L383,228.31a68.4,68.4,0,0,1-8.16,2.57A45.27,45.27,0,0,1,364.16,232a36,36,0,0,1-13.82-2.36,26.45,26.45,0,0,1-9.34-6.39,24.07,24.07,0,0,1-5.33-9.41A38.51,38.51,0,0,1,334,202.51Z"></path><path class="cls-3" d="M420.54,232a31.9,31.9,0,0,1-12.11-2.11A22.24,22.24,0,0,1,400,224a25.64,25.64,0,0,1-5.07-9,36.34,36.34,0,0,1-1.7-11.5,50.81,50.81,0,0,1,2.56-15.8,44.77,44.77,0,0,1,7.57-14.21,40.58,40.58,0,0,1,12.23-10.35,33.76,33.76,0,0,1,16.58-4,31.85,31.85,0,0,1,12.05,2.12,22.46,22.46,0,0,1,8.55,5.92,25.66,25.66,0,0,1,5.06,9,36.71,36.71,0,0,1,1.71,11.52,52.77,52.77,0,0,1-2.49,15.8,45.76,45.76,0,0,1-7.37,14.21A38.73,38.73,0,0,1,437.46,228a34.53,34.53,0,0,1-16.92,4Zm9.74-56.33a12.3,12.3,0,0,0-7.63,2.5,21.55,21.55,0,0,0-5.52,6.32,31.44,31.44,0,0,0-3.37,8.36,36.27,36.27,0,0,0-1.11,8.61c0,4.4.71,7.82,2.1,10.28s3.95,3.68,7.64,3.68A12.17,12.17,0,0,0,430,212.9a21.7,21.7,0,0,0,5.53-6.31,31.28,31.28,0,0,0,3.36-8.36,36.29,36.29,0,0,0,1.11-8.62q0-6.57-2.11-10.27C436.51,176.9,434,175.66,430.28,175.66Z"></path><path class="cls-3" d="M480.72,230.15H461.23l16.45-69.22H497.3Zm9.47-77.66a12,12,0,0,1-7.37-2.43q-3.29-2.42-3.29-7.43a12.28,12.28,0,0,1,1.12-5.2,13.74,13.74,0,0,1,3-4.21,14.44,14.44,0,0,1,4.28-2.83,12.94,12.94,0,0,1,5.19-1,12.1,12.1,0,0,1,7.37,2.43c2.19,1.63,3.3,4.11,3.3,7.44a12.4,12.4,0,0,1-1.13,5.2,13.43,13.43,0,0,1-2.95,4.21,14.58,14.58,0,0,1-4.27,2.83,12.9,12.9,0,0,1-5.21,1Z"></path><path class="cls-3" d="M511.33,164.08c1.48-.43,3.13-1,4.92-1.52s3.82-1.09,6.07-1.56a70.26,70.26,0,0,1,7.49-1.19,82.91,82.91,0,0,1,9.41-.47q15.4,0,21.26,9t2,24.47l-9,37.38H534l8.69-36.59c.52-2.29.94-4.49,1.25-6.65a15.85,15.85,0,0,0-.07-5.66,6.77,6.77,0,0,0-2.43-3.95q-1.92-1.52-5.86-1.51a39.33,39.33,0,0,0-7.76.8L515,230.15H495.4Z"></path></svg> 