<?xml version="1.0" encoding="UTF-8"?> <svg xmlns="http://www.w3.org/2000/svg" xmlns:xlink="http://www.w3.org/1999/xlink" version="1.1" id="Layer_1" x="0px" y="0px" viewBox="0 0 630 360" style="enable-background:new 0 0 630 360;" xml:space="preserve"> <style type="text/css"> .st0{fill:#85C552;} .st1{fill:#153C65;} </style> <title>104_white</title> <g> <path class="st0" d="M140.7,117.1c-50.7,0-91.7,24-91.7,53.8c0,12.6,7.4,24.2,20,33.5c-6.2-7.7-9.7-16.1-9.7-25.3 c0-30.8,40.2-55.9,89.6-55.9c31.9,0,59.9,10.3,75.8,26.1C210.6,130.3,178.2,117.1,140.7,117.1L140.7,117.1z"></path> <path class="st1" d="M99.9,164.4c2.6-2.2,5.9-3.3,9.8-3.3c3.8,0,7.1,1.1,9.8,3.3c2.7,2.2,4.2,5.1,4.4,8.6h-29 C95.6,169.4,97.3,166.6,99.9,164.4L99.9,164.4z M132.7,186.1c3.7,0,6.7-0.8,9-2.4c2.6-1.7,4-4.3,4-7.6c0-6.1-2-11.8-6-17 c-4-5.2-9.1-9.1-15.4-11.8c-4.4-1.8-9.2-2.7-14.6-2.7c-10.8,0-19.7,3.5-26.7,10.5c-7,7-10.4,15.5-10.4,25.4 c0,10,3.6,18.4,10.9,25.2c7.3,6.8,16.4,10.2,27.3,10.2c5.8,0,11.4-0.8,16.8-2.5c6.4-1.9,11-4.7,13.9-8.3c1.6-2,2.5-4,2.5-6 c0-5.2-2.9-7.8-8.7-7.8c-1.3,0-4.5,1.1-9.8,3.3c-5.3,2.2-9.8,3.3-13.5,3.3c-4.5,0-8.2-1-11.3-3.1c-3.1-2.1-4.9-5-5.3-8.9H132.7 L132.7,186.1z"></path> <path class="st1" d="M157.9,205.7c6.7,6.9,15.6,10.3,26.7,10.3c6.6,0,12.2-1,16.6-3c6.2-2.8,9.3-6.2,9.3-10.3 c0-2.4-0.8-4.4-2.4-6.1c-1.6-1.7-3.7-2.5-6.2-2.5c-1.7,0-3.9,0.5-6.5,1.5c-2.6,1-5.5,1.5-8.6,1.5c-5.3,0-9.4-1.7-12.3-5 c-2.5-3-3.8-6.9-3.8-11.9c0-4.7,1.2-8.6,3.7-11.8c2.7-3.5,6.6-5.2,11.6-5.2c3.1,0,6,0.5,8.8,1.5c2.8,1,5,1.5,6.8,1.5 c2.6,0,4.8-0.8,6.5-2.5c1.7-1.7,2.6-3.7,2.6-6.1c0-4.6-3-8.1-9-10.4c-4.5-1.7-9.7-2.5-15.7-2.5c-11.5,0-20.6,3.3-27.5,10 c-6.9,6.7-10.4,15.2-10.4,25.7C148.1,190.7,151.3,199.1,157.9,205.7L157.9,205.7L157.9,205.7z"></path> <path class="st1" d="M237.4,168.9c2.6-3.6,6.4-5.3,11.2-5.3c4.7,0,8.4,1.8,11,5.5c2.4,3.1,3.5,6.9,3.5,11.4c0,4.6-1.1,8.5-3.4,11.5 c-2.6,3.6-6.4,5.5-11.2,5.5c-4.7,0-8.4-1.8-11-5.5c-2.4-3.1-3.5-7-3.5-11.5C234,175.9,235.1,172,237.4,168.9L237.4,168.9 L237.4,168.9z M221.4,205.8c7.1,7,16.1,10.5,27.1,10.5c11.1,0,20.1-3.5,27.1-10.4c6.7-6.8,10.1-15.2,10.1-25.4 c0-10.2-3.4-18.8-10.2-25.7c-6.8-6.9-15.8-10.3-27-10.3c-11,0-20,3.5-26.9,10.4c-7,6.9-10.4,15.4-10.4,25.6 C211.2,190.6,214.6,199.1,221.4,205.8L221.4,205.8L221.4,205.8z"></path> <path class="st0" d="M316.8,200.8v-15.4H332c10.7,0,19.2-2.7,25.4-8.1c6.2-5.4,9.3-12.9,9.3-22.7c0-9.8-3.4-17.5-10.2-22.9 c-6.5-5.2-15.2-7.8-26.2-7.8h-20.5c-5.9,0-10,1.1-12.3,3.2c-2.3,2.1-3.4,5.9-3.4,11.3v62.4c0,9.7,3.8,14.6,11.3,14.6 C313,215.4,316.8,210.5,316.8,200.8L316.8,200.8L316.8,200.8z M316.8,142.9h9.8c10.4,0,15.5,3.9,15.5,11.8c0,8-5.2,12-15.5,12h-9.8 V142.9L316.8,142.9z"></path> <path class="st0" d="M430.4,215.4c7.3,0,10.9-4.9,10.9-14.7v-40.4c0-9.7-3.6-14.5-10.9-14.5c-4.5,0-8,2.1-10.5,6.3 c-4.5-4.8-10.4-7.2-17.7-7.2c-10.1,0-18.4,3.7-25,11.2c-6.2,6.9-9.3,15.1-9.3,24.4c0,9.3,3,17.3,8.9,24.2 c6.5,7.4,14.6,11.2,24.5,11.2c7.8,0,14-2.5,18.5-7.6C422.1,213,425.6,215.4,430.4,215.4L430.4,215.4L430.4,215.4z M394.2,169.3 c2.6-3.4,6.2-5.1,10.7-5.1c4.6,0,8.2,1.7,10.7,5.1c2.2,3,3.3,6.7,3.3,11c0,4.4-1.1,8.1-3.3,11.2c-2.5,3.5-6.1,5.2-10.7,5.2 c-4.6,0-8.2-1.7-10.9-5.2c-2.3-3.1-3.4-6.8-3.4-11.2C390.7,176,391.9,172.3,394.2,169.3L394.2,169.3L394.2,169.3z"></path> <path class="st0" d="M492.4,153.8l-13.5,32l-12.5-30.2c-1.4-3.4-2.6-5.7-3.7-6.8c-1.8-1.9-4.3-2.9-7.5-2.9c-3.1,0-5.7,1-7.7,2.9 c-2,1.9-3.1,4.3-3.1,7.1c0,2,0.4,3.8,1.2,5.6l22.2,47.2l-9.1,18c-1.2,2.5-1.8,4.8-1.8,6.8c0,3,1,5.3,3,7c2,1.7,4.6,2.6,7.9,2.6 c3.9,0,7.1-2.7,9.7-8.1l33.7-72.5c1.2-2.6,1.8-4.9,1.8-6.9c0-6.4-3.6-9.5-10.9-9.5C497.9,145.8,494.7,148.5,492.4,153.8 L492.4,153.8L492.4,153.8z"></path> <path class="st0" d="M567.2,195.8h-21.8l29.3-34.2c3-3.5,4.5-6.4,4.5-8.8c0-2.6-1.1-4.3-3.4-5c-2.3-0.7-5.8-1.1-10.5-1.1h-35.3 c-9.4,0-14,3-14,9c0,6.1,4.6,9.2,13.9,9.2h19l-30.3,35.6c-2.2,2.6-3.3,5.1-3.3,7.7c0,4.1,3.9,6.2,11.6,6.2H567 c9.3,0,13.9-3.1,13.9-9.2C580.9,198.9,576.4,195.8,567.2,195.8L567.2,195.8L567.2,195.8z"></path> </g> </svg> 