<?xml version="1.0" encoding="UTF-8"?> <svg xmlns="http://www.w3.org/2000/svg" xmlns:xlink="http://www.w3.org/1999/xlink" version="1.1" id="Layer_1" x="0px" y="0px" viewBox="0 0 630 360" style="enable-background:new 0 0 630 360;" xml:space="preserve"> <style type="text/css"> .st0{fill:none;} .st1{fill:#FF5F00;} .st2{fill:#EB001B;} .st3{fill:#F79E1B;} </style> <title>24_white</title> <rect x="76.4" y="2.5" class="st0" width="1196.5" height="274.7"></rect> <path d="M139.1,314v-28.5c0-10.7-6.8-18-17.9-18.1c-6.4-0.4-12.5,2.7-16,8.1c-3.2-5.2-8.9-8.3-15-8.1c-5.3-0.2-10.3,2.3-13.3,6.8 v-5.7h-9.9V314h10v-25.3c0-7.9,4.4-12.1,11.1-12.1c6.8,0,9.9,4.3,9.9,12V314h9.9v-25.2c0-7.9,4.5-12.1,11.1-12.1s10,4.3,10,12V314 L139.1,314z M286.8,268.5h-16.2v-13.8h-9.9v13.8h-9.3v9h9.3v20.7c0,10.6,4.1,16.8,15.8,16.8c4.4,0,8.6-1.2,12.4-3.5l-2.8-8.5 c-2.6,1.6-5.6,2.4-8.7,2.5c-4.9,0-6.6-3-6.6-7.6v-20.5h16.1L286.8,268.5z M371.1,267.4c-4.9-0.1-9.5,2.4-12,6.7v-5.5h-9.8V314h9.9 v-25.5c0-7.6,3.2-11.7,9.7-11.7c2.1,0,4.2,0.4,6.2,1.1l3-9.3C375.8,267.8,373.5,267.4,371.1,267.4L371.1,267.4z M243.7,272.1 c-5.6-3.3-12-5-18.5-4.7c-11.5,0-19,5.5-19,14.5c0,7.4,5.5,12,15.7,13.4l4.6,0.6c5.4,0.8,8,2.2,8,4.7c0,3.5-3.6,5.5-10.4,5.5 c-5.5,0.2-10.8-1.5-15.2-4.7l-4.5,7.7c5.7,4,12.7,6.1,19.7,5.9c13.1,0,20.7-6.2,20.7-14.8c0-8-6-12.2-15.9-13.6l-4.6-0.7 c-4.3-0.6-7.7-1.4-7.7-4.4c0-3.3,3.2-5.3,8.7-5.3c5,0.1,9.8,1.4,14.2,3.9L243.7,272.1z M508.4,267.4c-4.9-0.1-9.5,2.4-12,6.7v-5.5 h-9.9V314h9.9v-25.5c0-7.6,3.2-11.7,9.7-11.7c2.1,0,4.2,0.4,6.2,1.1l3-9.3C513.1,267.8,510.7,267.4,508.4,267.4L508.4,267.4z M381.1,291.3c0,13.8,9.6,23.8,24.2,23.8c5.9,0.3,11.8-1.6,16.3-5.4l-4.7-8c-3.4,2.6-7.6,4.1-11.9,4.1c-7.9,0-13.7-5.8-13.7-14.5 c0-8.7,5.8-14.5,13.7-14.5c4.3,0,8.5,1.5,11.9,4.1l4.7-8c-4.6-3.8-10.4-5.7-16.3-5.4C390.7,267.4,381.1,277.5,381.1,291.3 L381.1,291.3z M473.6,291.3v-22.8h-9.9v5.5c-3.4-4.4-8.8-6.9-14.3-6.6c-12.7,0-22.8,10-22.8,23.8c0,13.9,10,23.8,22.8,23.8 c5.6,0.2,10.9-2.2,14.3-6.7v5.5h9.9L473.6,291.3z M436.9,291.3c0-8,5.2-14.5,13.8-14.5c8.2,0,13.7,6.3,13.7,14.5 c0,8.2-5.5,14.5-13.7,14.5C442.1,305.8,436.8,299.2,436.9,291.3L436.9,291.3z M317.7,267.4c-13.3,0-22.6,9.7-22.6,23.8 c0,14.2,9.7,23.8,23.3,23.8c6.8,0.2,13.4-2,18.6-6.4l-4.8-7.3c-3.8,3-8.4,4.7-13.3,4.7c-6.4,0-12.2-2.9-13.6-11.1h33.7 c0-1.2,0.2-2.5,0.2-3.8c0-14.2-8.8-23.8-21.6-23.8L317.7,267.4z M317.5,276.2c6.4,0,10.5,4,11.5,11h-23.6 C306.4,280.7,310.3,276.2,317.5,276.2L317.5,276.2z M565.3,291.3v-41h-10V274c-3.4-4.4-8.8-6.9-14.3-6.6c-12.7,0-22.8,10-22.8,23.8 c0,13.9,10,23.8,22.8,23.8c5.6,0.2,10.9-2.2,14.3-6.7v5.5h9.9L565.3,291.3z M576.9,309.8c0.4,0,0.8,0.1,1.1,0.2 c0.3,0.1,0.7,0.4,0.9,0.6c0.3,0.3,0.5,0.6,0.6,0.9c0.3,0.7,0.3,1.5,0,2.2c-0.1,0.3-0.4,0.6-0.6,0.9c-0.3,0.3-0.6,0.5-0.9,0.6 c-1.5,0.6-3.2-0.1-3.9-1.5c-0.3-0.7-0.3-1.5,0-2.2c0.3-0.7,0.8-1.3,1.5-1.6C576.1,309.8,576.5,309.7,576.9,309.8L576.9,309.8z M576.9,314.9c0.3,0,0.6,0,0.9-0.2c0.3-0.1,0.5-0.3,0.7-0.5c0.9-0.9,0.9-2.3,0-3.2c0,0,0,0,0,0c-0.2-0.2-0.4-0.4-0.7-0.5 c-0.3-0.1-0.6-0.2-0.9-0.2c-0.3,0-0.6,0-0.9,0.2c-1.1,0.5-1.7,1.8-1.2,2.9c0,0,0,0,0,0c0.1,0.3,0.3,0.5,0.5,0.7 c0.2,0.2,0.5,0.4,0.7,0.5C576.3,314.9,576.6,314.9,576.9,314.9L576.9,314.9z M577,311.3c0.3,0,0.6,0.1,0.8,0.2 c0.3,0.3,0.3,0.9,0,1.2c0,0,0,0,0,0c-0.2,0.1-0.4,0.2-0.6,0.3l0.9,1h-0.7l-0.8-1h-0.3v1h-0.7v-2.7L577,311.3z M576.4,311.8v0.7h0.7 c0.1,0,0.3,0,0.4,0c0.1-0.1,0.1-0.2,0.1-0.3c0-0.1-0.1-0.2-0.1-0.3H577L576.4,311.8z M528.6,291.3c0-8,5.2-14.5,13.8-14.5 c8.2,0,13.7,6.3,13.7,14.5c0,8.2-5.5,14.5-13.7,14.5C533.8,305.8,528.5,299.2,528.6,291.3L528.6,291.3z M194.9,291.3v-22.8h-10v5.5 c-3.4-4.4-8.7-6.8-14.3-6.6c-12.7,0-22.8,10-22.8,23.8c0,13.9,10,23.8,22.8,23.8c5.6,0.2,10.9-2.2,14.3-6.7v5.5h9.9L194.9,291.3z M158.1,291.3c0-8,5.2-14.5,13.8-14.5c8.2,0,13.7,6.3,13.7,14.5c0,8.2-5.5,14.5-13.7,14.5C163.3,305.8,158.1,299.2,158.1,291.3z"></path> <g id="_Group_"> <rect x="277.4" y="69.2" class="st1" width="78.7" height="141.4"></rect> <path id="_Path_" class="st2" d="M282.4,139.9c0-27.6,12.6-53.6,34.3-70.7c-39-30.7-95.6-23.9-126.3,15.1s-23.9,95.6,15.1,126.3 c32.6,25.6,78.5,25.6,111.2,0C295.1,193.6,282.4,167.5,282.4,139.9z"></path> <path class="st3" d="M462.3,139.9c0,49.7-40.2,89.9-89.9,89.9c-20.2,0-39.7-6.8-55.6-19.2c39-30.7,45.8-87.2,15.1-126.3 c-4.4-5.6-9.5-10.7-15.1-15.1c39-30.7,95.6-23.9,126.3,15.1C455.5,100.2,462.3,119.7,462.3,139.9z"></path> <path class="st3" d="M453.6,195.6v-2.9h1.2v-0.5h-2.9v0.6h1.2v2.9L453.6,195.6z M459.3,195.6v-3.5h-0.8l-1,2.5l-1-2.5h-0.9v3.5h0.5 V193l1,2.3h0.7l1-2.3v2.6H459.3z"></path> </g> </svg> 