<?xml version="1.0" encoding="UTF-8"?> <svg xmlns="http://www.w3.org/2000/svg" xmlns:xlink="http://www.w3.org/1999/xlink" version="1.1" id="Layer_1" x="0px" y="0px" viewBox="0 0 630 360" style="enable-background:new 0 0 630 360;" xml:space="preserve"> <style type="text/css"> .st0{fill:#E3001B;} .st1{fill:#008AC9;} </style> <g> <title>24_white</title> <path class="st0" d="M270.4,95.2c2.2-1,4.5-1.8,6.7-2.2c4.1-19.6,21.6-34.4,42.4-34.4c20.9,0,38.3,14.7,42.4,34.4 c6.5,1.2,11.8,3.7,15.8,7.6c0.1-3.7,0-7.4-0.4-10.9c-2.6-29.7-27.5-53-57.9-53c-31.3,0-56.7,24.8-58,55.7c-0.1,2.7-0.3,5.4-0.1,8.4 C263.8,98.7,266.7,96.8,270.4,95.2"></path> <path class="st0" d="M353.3,99.6h-69.7c-3.4,0-6.8,0.8-10.3,2.3c-3.5,1.6-6.3,3.4-8.5,5.6c-4.3,5.2-6.6,12.8-6.7,22.8v54.4 c0.1,9.9,2.3,17.6,6.7,22.8c2.3,2.2,5,4,8.5,5.6c3.6,1.6,7.1,2.3,10.3,2.3h69.7c18-0.1,27.1-10.1,27.4-29.6v-56.6 C380.5,109.5,371.3,99.7,353.3,99.6"></path> <path class="st1" d="M86.4,266.5c0-2.1-1.1-3.2-3-3.2H73.1c-2.4,0.1-3.7,1.5-3.8,4v18.4c0,2.6,1.4,3.9,4.1,4h9.4 c0.9,0,1.8-0.4,2.4-1.1c0.7-0.5,1-1.3,1-2.2L86.4,266.5L86.4,266.5z M56.2,263.9c0-4.6,1.1-8.1,3.1-10.5c1-1,2.3-1.8,3.9-2.6 c1.7-0.7,3.2-1.1,4.8-1.1h18.8c8.3,0,12.5,4.6,12.7,13.6v27.8c0,3.2-1.3,6-3.8,8.3c-2.4,2.4-5.3,3.7-8.6,3.8H69.4v20H56.2V263.9 M123.3,287c0,0.8,0.4,1.4,1.1,1.8c0.6,0.5,1.4,0.8,2.4,0.8h10.1c2.3,0,3.5-0.9,3.5-2.7v-3.8c0-2.1-1.2-3.1-3.6-3.1h-10 c-1.3,0-2.2,0.2-2.7,0.7c-0.5,0.5-0.7,1.4-0.7,2.9L123.3,287L123.3,287z M140.5,266.1c0-2-1.1-3-3.5-2.9h-26.5v-13.5h29.9 c8.7,0.1,13.1,4.4,13.3,12.7v28.3c0,3.6-1.2,6.5-3.3,8.9c-2.2,2.4-5.1,3.6-8.6,3.6h-18.1c-8.8,0-13.3-4.1-13.4-12.1v-10.9 c0-8.4,4.3-12.6,12.8-12.7h17.5L140.5,266.1 M190.5,309.7c1,0,2-0.4,2.7-1.1c0.7-0.7,1.1-1.4,1.1-2.2v-3.2h-16.8 c-2.2,0-3.9-0.3-5.3-0.8c-1.4-0.5-2.7-1.4-4.2-2.8c-1.3-1.4-2.3-2.9-2.9-4.5c-0.6-1.4-0.9-3.2-0.9-5.4v-39.9h13.2v35.7 c0,2.9,1.2,4.3,3.5,4.3h9.3c1.1,0,2.1-0.4,2.9-1.1c0.8-0.7,1.1-1.4,1.1-2.3v-36.6h13.1v58.9c0,4.4-1.2,7.9-3.3,10.5 c-2.2,2.6-5.2,4-9,4.1h-30.7v-13.6L190.5,309.7 M217.7,289.7h23.5c2.2,0,3.3-0.9,3.3-2.6v-1.2c0-0.4-0.1-0.7-0.3-1.1 c-0.5-1-1.2-1.5-1.9-1.5h-11.7c-3.5,0-6.4-1.3-8.9-3.6c-2.5-2.2-3.8-4.7-3.9-7.8v-10.1c0.1-7.9,4.4-11.9,12.8-12h27.2v13.6h-23 c-2.7,0-4.1,0.8-4.1,2.5v1.3c0,1.7,1.4,2.6,4.2,2.6h11.6c3.1,0,5.7,1.3,7.9,3.6c2.2,2.3,3.3,5.1,3.5,8.3v9.9c0,2.7-1.4,5.5-3.8,8.3 c-1.2,1.4-2.4,2.3-3.6,2.8c-1.3,0.5-3,0.7-5.2,0.7h-27.5L217.7,289.7 M280.5,287c0,0.8,0.4,1.4,1.1,1.8c0.6,0.5,1.4,0.8,2.4,0.8 h10.1c2.3,0,3.5-0.9,3.5-2.7v-3.8c0-2.1-1.2-3.1-3.6-3.1h-10c-1.3,0-2.2,0.2-2.7,0.7c-0.5,0.5-0.7,1.4-0.7,2.9L280.5,287L280.5,287 z M297.6,266.1c0-2-1.1-3-3.6-2.9h-26.5v-13.5h29.9c8.7,0.1,13.1,4.4,13.3,12.7v28.3c0,3.6-1.2,6.5-3.3,8.9 c-2.2,2.4-5.1,3.6-8.6,3.6h-18.1c-8.8,0-13.3-4.1-13.4-12.1v-10.9c0-8.4,4.3-12.6,12.8-12.7h17.5L297.6,266.1 M321.4,242 c0-3.6,1.4-6.6,4.1-8.8c2.6-2.2,5.9-3.4,10.1-3.5h8.4v13.1h-5.1c-2.8,0-4.2,1.4-4.2,4v2.9h9.3v13.6h-9.3v40h-13.2V242 M381.3,265.9 v-0.3c0-0.7-0.3-1.3-0.8-1.7c-0.6-0.4-1.4-0.7-2.3-0.7H369c-1.2,0-2.2,0.4-2.9,1c-0.9,0.6-1.4,1.4-1.4,2.4v5.4L381.3,265.9 L381.3,265.9z M365,285.1v0.8c0,1.1,0.3,2,0.8,2.6c0.4,0.8,0.9,1.2,1.7,1.2h27.1v13.6h-28.8c-2.6,0-4.6-0.2-6.1-0.7 c-1.5-0.5-3-1.4-4.2-2.6c-1.4-1.4-2.4-2.9-2.9-4.4c-0.5-1.5-0.8-3.6-0.8-6.2l-0.1-27.1c0.1-8.2,4.4-12.4,12.8-12.5h17.8 c8.2,0.1,12.4,4.5,12.5,13v10.7L365,285.1 M422.7,303.2c-2,0-3.8-0.2-5.5-0.5c-1.7-0.3-3.5-1.1-5.2-2.4c-1.8-1.5-3.1-3.3-3.8-5.3 c-0.7-1.9-1.1-4.1-1.1-6.5v-25.3c0-2,0.1-3.9,0.6-5.4c0.4-1.5,1.4-3.1,2.8-4.6c1.6-1.5,3.2-2.6,5-3.2c1.7-0.4,3.5-0.7,5.6-0.7h20.2 v3.2h-19.7c-3.5,0-6.2,0.7-8.2,2.2c-2,1.5-3.1,4.2-3.1,8.1v25.3c0,1.8,0.3,3.5,0.8,5.2c0.5,1.6,1.5,3.1,2.8,4.4 c1.4,1.1,2.9,1.8,4.2,2c1.4,0.3,3,0.5,4.6,0.5h18.8v3.2L422.7,303.2 M493.3,270.4h-26.5c-3.2,0-5.7,1.1-7.5,2.9 c-1.8,1.9-2.7,4.6-2.7,7.9v8.1c0,1.5,0.2,3,0.5,4.3c0.4,1.4,1.1,2.6,2.4,3.6c2.3,1.9,4.8,2.8,7.6,2.8h16.1 c6.7,0,10.1-3.6,10.1-10.6L493.3,270.4L493.3,270.4z M496.4,288.6c0,2-0.2,3.8-0.4,5.4c-0.4,1.7-1.3,3.3-2.6,4.9 c-2.7,2.9-6.2,4.4-10.3,4.2h-15.8c-4.1,0-7.4-1.2-10-3.6c-2.6-2.4-3.9-5.7-3.9-10v-8.1c0.1-9.2,4.7-13.9,13.7-14.1h26.2v-3.6 c0-2.9-0.8-5.5-2.6-7.7c-1.1-1.4-2.3-2.4-3.8-2.9c-1.4-0.4-3.1-0.6-4.9-0.6h-28.6v-3.2h27.1c2.5,0,4.7,0.2,6.8,0.5 c1,0.2,2,0.6,2.9,1.2c0.9,0.5,1.8,1.4,2.6,2.4c2.4,3.2,3.6,6.8,3.6,10.8L496.4,288.6 M526,252.5c-7.3,0.1-11,4.1-10.8,12v38.6h-3.2 v-38.6c-0.2-10.1,4.6-15.2,14.5-15.2h3.5v3.2L526,252.5 M579.4,252.5h-25c-1.8,0-3.4,0.2-4.8,0.6c-1.5,0.4-3,1.3-4.4,2.7 c-1.3,1.4-2.2,2.7-2.5,4.1c-0.5,1.4-0.7,3-0.6,4.9v24.7c0,4.1,1.2,6.9,3.6,8.4c1.2,0.7,2.5,1.2,3.9,1.5s3.1,0.6,4.8,0.6h10.9 c4.1,0,7.4-0.9,10-2.8c2.6-1.8,3.9-4.8,4-9.2L579.4,252.5L579.4,252.5z M582.5,288.2c-0.3,10.2-5.7,15.2-16.2,15h-11.7 c-2.4,0-4.6-0.2-6.6-0.6c-2-0.5-3.9-1.7-5.8-3.6c-1.4-1.7-2.3-3.5-2.6-5.3c-0.5-1.8-0.7-3.8-0.6-5.9v-23 c0.1-10.3,5.4-15.5,15.6-15.4h24.8v-17.5h3.2L582.5,288.2"></path> </g> </svg> 