<?xml version="1.0" encoding="UTF-8"?> <svg xmlns="http://www.w3.org/2000/svg" id="Layer_1" data-name="Layer 1" viewBox="0 0 630 360"><defs><style>.cls-1{fill:#0ee06e;}</style></defs><title>44_white</title><path class="cls-1" d="M516,255H114a24,24,0,0,1-24-24V129a24,24,0,0,1,24-24H516a24,24,0,0,1,24,24V231A24,24,0,0,1,516,255Z"></path><path d="M255.06,210V160.74H237.3V150h47.22v10.8H266.76V210Z"></path><path d="M283.2,210V166.38h10.86v6.9c2.82-5.82,6.36-6.9,10.14-6.9h4.26V177.3h-3.72c-5.52,0-10.38,3.18-10.38,12.84v19.8H283.2Z"></path><path d="M314.64,194.22V166.44H325.8v25.14c0,5.58,2.88,9.3,8,9.3,4.92,0,8.58-3.72,8.58-9.24V166.38h11.16V210h-10.8v-5.52c-2.82,4.38-7.14,6.48-12.6,6.48C320.94,211,314.64,204.84,314.64,194.22Z"></path><path d="M359.46,197.7l9.84-2.22c.48,3.84,3.6,6.42,8.82,6.42,4.26,0,6.72-1.8,6.72-4.14,0-1.92-1.14-3.18-5.28-4.2l-7.08-1.62c-8.28-1.92-12.18-5.82-12.18-13.08s6.18-13.26,17.46-13.26c11.94,0,16.86,7.08,17.52,12.18l-9.84,2.16c-.48-2.7-2.52-5.58-7.92-5.58-3.54,0-6.18,1.62-6.18,4,0,2,1.56,3.18,4,3.78l9.6,2.28c7.5,1.8,11.1,6.18,11.1,12.6,0,7-5.7,13.92-17.82,13.92C365,210.84,360.06,203,359.46,197.7Z"></path><path d="M419,210c-7.5,0-12.24-4.26-12.24-12.24V176.1h-7.26v-9.72h7.26v-9.9l11.16-3.18v13.14h8.88v9.72H417.9V195.9c0,3.18,1.56,4.44,4.8,4.44h4.86V210Z"></path><path d="M434.88,210V150H446v60Z"></path><path d="M483,166.44h12l-18.42,59.22h-12l5.1-15.6h-6.06L451.2,166.44h12l9.48,34.32Z"></path><polygon points="135 176.28 163.02 176.28 163.02 153.96 185.34 176.28 163.02 198.6 163.02 210 190.08 210 190.08 176.28 214.98 176.28 214.98 150 135 150 135 176.28"></polygon></svg> 