<?xml version="1.0" encoding="UTF-8"?> <svg xmlns="http://www.w3.org/2000/svg" xmlns:xlink="http://www.w3.org/1999/xlink" version="1.1" id="Layer_1" x="0px" y="0px" viewBox="0 0 630 360" style="enable-background:new 0 0 630 360;" xml:space="preserve"> <style type="text/css"> .st0{fill:url(#SVGID_1_);} </style> <title>24_white</title> <g> <linearGradient id="SVGID_1_" gradientUnits="userSpaceOnUse" x1="186.5776" y1="256.8611" x2="188.4224" y2="256.8611" gradientTransform="matrix(256 0 0 82.6684 -47685 -21054.3066)"> <stop offset="0" style="stop-color:#222357"></stop> <stop offset="1" style="stop-color:#254AA5"></stop> </linearGradient> <path class="st0" d="M323.1,152.5c-0.3,21.2,18.9,33.1,33.4,40.1c14.9,7.2,19.9,11.9,19.8,18.3c-0.1,9.9-11.9,14.3-22.8,14.4 c-19.2,0.3-30.3-5.2-39.2-9.3l-6.9,32.3c8.9,4.1,25.4,7.7,42.4,7.8c40.1,0,66.3-19.8,66.4-50.5c0.2-38.9-53.8-41.1-53.5-58.5 c0.1-5.3,5.2-10.9,16.2-12.3c5.5-0.7,20.5-1.3,37.6,6.6l6.7-31.3c-9.2-3.3-21-6.6-35.7-6.6C349.9,103.7,323.3,123.8,323.1,152.5 M487.7,106.4c-7.3,0-13.5,4.3-16.2,10.8L414.3,254h40l8-22h48.9l4.6,22h35.3l-30.8-147.5H487.7 M493.3,146.3l11.6,55.4h-31.7 L493.3,146.3 M274.6,106.4L243,254h38.2l31.6-147.5H274.6 M218.1,106.4l-39.7,100.4l-16.1-85.4c-1.9-9.5-9.3-15-17.6-15H79.8 l-0.9,4.3c13.3,2.9,28.5,7.6,37.7,12.6c5.6,3,7.2,5.7,9.1,13L156,254h40.3l61.8-147.5H218.1"></path> </g> </svg> 