<?xml version="1.0" encoding="UTF-8"?> <svg xmlns="http://www.w3.org/2000/svg" xmlns:xlink="http://www.w3.org/1999/xlink" id="Layer_1" data-name="Layer 1" viewBox="0 0 630 360"><defs><style>.cls-1{fill:none;}.cls-2{clip-path:url(#clip-path);}.cls-3,.cls-4{fill:#14213d;}.cls-3{fill-rule:evenodd;}</style><clipPath id="clip-path"><rect class="cls-1" x="81.53" y="117" width="466.94" height="126"></rect></clipPath></defs><title>30_white</title><g class="cls-2"><path class="cls-3" d="M178.92,137.56a12.54,12.54,0,0,0,12-10.28A8.64,8.64,0,0,0,182.16,117a12.55,12.55,0,0,0-12,10.28C169.22,133,173.07,137.56,178.92,137.56Z"></path><path class="cls-4" d="M548.47,145c-9.55-.47-22,11.37-22,11.37l-4-10.12H511.49l-5.25,30.06a9.28,9.28,0,0,1-3.08,5.27L488.83,193s-5.85,4.53-14,9.8a21.16,21.16,0,0,1-9.87,2.64c-6.62,0-10.78-2.64-12.63-7a14.63,14.63,0,0,1-.77-2.49l36.83-25.25c5.39-3.74,5.24-8.88,4.47-11.52-2.31-8.11-9.56-14-21.42-14-22,0-37.28,19-37.28,46.1,0,1.88.15,3.58.3,5.3L424,204a15.3,15.3,0,0,1-6.78,2.34c-3.23,0-4.47-2.49-3.54-8l13.71-77.56-17.1-.15-6.78,38.62a9.64,9.64,0,0,1-2.16,4.36l-18.8,20.09a76.42,76.42,0,0,0,.77-10.59c0-16.35-7.4-28.34-20-28.34-12.18,0-21.25,10.43-21.25,10.43l-4.8-9.19H326.4l-5.85,34a8.91,8.91,0,0,1-1.87,4l-10.94,13.08c-3.08,3.27-6.16,7.32-7.7,7.47-2.93.47-4.16-.62-3.24-5.92l4.31-24.6c3.39-19.47-2.46-29.28-18.95-29.28-9.86,0-21.42,11.21-21.42,11.21-2.45-7.32-8.47-11.21-17.56-11.21-10,0-20.8,11.83-20.8,11.83l-4.47-10.59H207l-5.55,32.09a9,9,0,0,1-1.86,4l-12.48,15c-3.09,3.27-6.17,7.32-7.71,7.47-2.93.47-4.16-.62-3.23-5.92l9.4-52.64H168.77L166,161.67a12,12,0,0,1-2.61,5.45l-25.14,29.44a26.53,26.53,0,0,1-16.34,8.25H104l40.37-46.26,2.16-12.46H94.63l-2.47,14h30.2l-39,46.26-1.86,13.08s36.53.16,37.14,0c10.79,0,20.19-9.5,24-13.56L162,182.83l-3.54,19.47c-2.16,12.78,2.61,18.69,12.94,18.54,6.32-.16,10.79-4.36,15.1-8.88l11.72-13.86-3.85,22.43h17.25l7.56-43.92c.92-5.46,7.86-14.65,15.1-14.65,7.55,0,11.25,3.74,9.55,14.18l-7.7,44.4h17.1l8.32-47.35c.47-3.11,6-12,13.72-12,8,0,10.63,4.36,8.95,14.8l-4.78,26.32c-2.16,12.77,2.61,18.69,12.94,18.53,6.34-.15,10.79-4.36,15.11-8.88l10.17-12-3.55,20.72-4.16,23.83h17.26L332.72,212a19,19,0,0,0,9.87,6.85,16.33,16.33,0,0,0,2.92.78c11.1.62,21.11-4.83,29.9-14.17l.15-.16,25-26.17-4,22.9c-2.16,12.77,2.46,18.53,12.94,18.53,6.78,0,12.95-3.42,19.57-7.94l8.79-6.38c.15.3.3.77.46,1.08,4,7.79,11.25,12.93,22,13.09h.15c11.4,0,22.5-10.9,28.82-15.42,1.69-1.25,7.86-6.23,14.48-11.68L499,220.53h17.25l7.56-43.92c.92-5.45,7.86-14.64,15.1-14.64a11.94,11.94,0,0,1,6.62,1.56ZM334.88,198.27l4-23.05c1.69-5.45,8.16-12.77,14.64-13.24,2.46-.16,5.54-.16,8.47,2.18,2.47,2.8,3.7,7,3.7,12.15,0,16.51-8,27.88-19.11,27.88A13.27,13.27,0,0,1,334.88,198.27Zm117.58-21.48c1.87-9,9.1-16.82,17.26-16.82,4.63,0,8,3.43,6.78,7.32l-25.27,17.59a80.84,80.84,0,0,1,1.24-8.1Z"></path></g></svg> 